# Blender v2.79 (sub 0) OBJ File: 'cranberry_doormat.blend'
# www.blender.org
g cranberry_doormat
v 45.000000 0.000000 30.000002
v 45.000000 0.519476 30.000002
v 43.607872 1.200000 28.607876
v 44.800678 1.000679 29.800680
v 44.319473 1.200000 29.319477
v -45.000000 0.000000 30.000002
v -45.000000 0.519476 30.000002
v -43.607872 1.200000 28.607876
v -44.800678 1.000679 29.800680
v -44.319473 1.200000 29.319477
v 45.000000 0.000000 -30.000002
v 45.000000 0.519476 -30.000002
v 43.607872 1.200000 -28.607876
v 44.800678 1.000679 -29.800680
v 44.319473 1.200000 -29.319477
v -45.000000 0.000000 -30.000002
v -45.000000 0.519476 -30.000002
v -43.607872 1.200000 -28.607876
v -44.800678 1.000679 -29.800680
v -44.319473 1.200000 -29.319477
vt 0.946961 0.011556
vt 0.053041 0.011558
vt 0.049459 0.007985
vt 0.950543 0.007988
vt 0.941988 0.016519
vt 0.941984 0.601273
vt 0.934909 0.594210
vt 0.934909 0.023587
vt 0.065091 0.023587
vt 0.058017 0.016524
vt 0.046850 0.005388
vt 0.953152 0.005389
vt 0.946954 0.606232
vt 0.953143 0.612399
vt 0.950534 0.609800
vt 0.046845 0.612412
vt 0.049455 0.609815
vt 0.065091 0.594210
vt 0.058014 0.601275
vt 0.053038 0.606241
vt 0.220144 0.993642
vt 0.220144 0.620500
vt 0.779856 0.620500
vt 0.779856 0.993642
vn 0.0000 0.5812 0.8138
vn 0.0000 0.1693 0.9856
vn 0.1481 0.9778 0.1481
vn 0.1481 0.9778 -0.1481
vn 0.0000 1.0000 0.0000
vn -0.1481 0.9778 0.1481
vn 0.0000 0.0000 1.0000
vn 0.8138 0.5812 0.0000
vn 1.0000 0.0000 0.0000
vn 0.9856 0.1693 0.0000
vn -1.0000 0.0000 0.0000
vn -0.9856 0.1693 0.0000
vn -0.1481 0.9778 -0.1481
vn -0.8138 0.5812 0.0000
vn 0.0000 0.1693 -0.9856
vn 0.0000 0.5812 -0.8138
vn 0.0000 0.0000 -1.0000
vn 0.0000 -1.0000 0.0000
s 1
f 4/1/1 9/2/1 7/3/2 2/4/2
f 5/5/3 15/6/4 13/7/5 3/8/5
f 8/9/5 10/10/6 5/5/3 3/8/5
f 5/5/3 10/10/6 9/2/1 4/1/1
f 2/4/2 7/3/2 6/11/7 1/12/7
f 14/13/8 15/6/4 5/5/3 4/1/8
f 11/14/9 12/15/10 2/4/10 1/12/9
f 16/16/11 6/11/11 7/3/12 17/17/12
f 8/9/5 18/18/5 20/19/13 10/10/6
f 19/20/14 9/2/14 10/10/6 20/19/13
f 13/7/5 18/18/5 8/9/5 3/8/5
f 12/15/15 17/17/15 19/20/16 14/13/16
f 18/18/5 13/7/5 15/6/4 20/19/13
f 14/13/16 19/20/16 20/19/13 15/6/4
f 11/14/17 16/16/17 17/17/15 12/15/15
f 12/15/10 14/13/8 4/1/8 2/4/10
f 17/17/12 7/3/12 9/2/14 19/20/14
s 2
f 6/21/18 16/22/18 11/23/18 1/24/18
